<svg width="26" height="26" viewBox="0 0 26 26" fill="none" xmlns="http://www.w3.org/2000/svg">
<path d="M22.7103 16.0115L22.9427 13.8578C23.0653 12.7082 23.1474 11.9503 23.0829 11.4728H23.1057C23.5381 11.4727 23.9574 11.3247 24.2941 11.0534C24.6308 10.7821 24.8645 10.4038 24.9566 9.98134C25.0486 9.55887 24.9934 9.11762 24.8001 8.73085C24.6068 8.34409 24.287 8.03507 23.8938 7.85511C23.5007 7.67514 23.0578 7.63506 22.6387 7.7415C22.2196 7.84795 21.8496 8.09452 21.59 8.44029C21.3303 8.78605 21.1968 9.21021 21.2115 9.64235C21.2261 10.0745 21.3882 10.4886 21.6707 10.8159C21.2589 11.0699 20.7207 11.6067 19.911 12.4139C19.2857 13.0367 18.9737 13.3474 18.6251 13.3954C18.4319 13.4221 18.2351 13.3945 18.0566 13.3158C17.7358 13.1744 17.521 12.7903 17.0928 12.0211L14.8317 7.96741C14.5676 7.49371 14.3466 7.09579 14.147 6.77747C14.6526 6.51983 15.0568 6.09947 15.2944 5.58411C15.5319 5.06876 15.5891 4.48843 15.4566 3.93663C15.3241 3.38483 15.0097 2.8937 14.5641 2.54238C14.1184 2.19105 13.5675 2 13 2C12.4325 2 11.8816 2.19105 11.4359 2.54238C10.9903 2.8937 10.6759 3.38483 10.5434 3.93663C10.4109 4.48843 10.4681 5.06876 10.7056 5.58411C10.9432 6.09947 11.3474 6.51983 11.853 6.77747C11.6534 7.09706 11.4324 7.49371 11.1671 7.96741L8.9072 12.0211C8.47771 12.7903 8.26296 13.1744 7.94211 13.3158C7.76366 13.3945 7.56686 13.4221 7.37366 13.3954C7.02628 13.3474 6.71427 13.0367 6.08898 12.4139C5.27926 11.6067 4.74113 11.0699 4.32933 10.8159C4.61182 10.4886 4.77386 10.0745 4.78854 9.64235C4.80322 9.21021 4.66967 8.78605 4.41005 8.44029C4.15043 8.09452 3.78036 7.84795 3.36128 7.7415C2.9422 7.63506 2.49932 7.67514 2.10617 7.85511C1.71302 8.03507 1.39324 8.34409 1.19992 8.73085C1.00661 9.11762 0.951389 9.55887 1.04343 9.98134C1.13547 10.4038 1.36923 10.7821 1.70591 11.0534C2.04259 11.3247 2.46193 11.4727 2.89432 11.4728H2.91706C2.85263 11.9503 2.93474 12.7095 3.05727 13.8578L3.2897 16.0115C3.41855 17.2065 3.52466 18.3447 3.65604 19.3679H22.344C22.4753 18.3447 22.5814 17.2078 22.7103 16.0115ZM11.6256 24.7365H14.3744C17.9568 24.7365 19.7481 24.7365 20.9431 23.6666C21.4648 23.1992 21.7945 22.3579 22.0332 21.2627H3.96678C4.20553 22.3579 4.53523 23.2005 5.05694 23.6666C6.25193 24.7365 8.04316 24.7365 11.6256 24.7365Z" fill="black"/>
</svg>
