<svg width="26" height="26" viewBox="0 0 26 26" fill="none" xmlns="http://www.w3.org/2000/svg">
<path d="M14 25C18.4628 25 22.4756 22.558 24.5708 18.6232L15.2 13L24.5708 7.3768C22.4756 3.442 18.4628 1 14 1C7.3832 1 2 6.3832 2 13C2 19.6168 7.3832 25 14 25ZM13.4 5.8C13.8775 5.80016 14.3355 5.99002 14.673 6.32781C15.0106 6.6656 15.2002 7.12365 15.2 7.6012C15.1998 8.07875 15.01 8.53668 14.6722 8.87424C14.3344 9.21181 13.8763 9.40136 13.3988 9.4012C12.9213 9.40104 12.4633 9.21118 12.1258 8.87339C11.7882 8.5356 11.5986 8.07755 11.5988 7.6C11.599 7.12245 11.7888 6.66452 12.1266 6.32696C12.4644 5.98939 12.9225 5.79984 13.4 5.8Z" fill="black"/>
</svg>
