<?xml version="1.0" encoding="utf-8"?>
<!-- Generator: Adobe Illustrator 27.2.0, SVG Export Plug-In . SVG Version: 6.00 Build 0)  -->
<svg version="1.1" id="Layer_1" xmlns="http://www.w3.org/2000/svg" xmlns:xlink="http://www.w3.org/1999/xlink" x="0px" y="0px"
	 viewBox="0 0 1709.9 186.6" style="enable-background:new 0 0 1709.9 186.6;" xml:space="preserve">
<style type="text/css">
	.st0{fill:#FFC700;}
</style>
<g>
	<path d="M0,174c16.2,2.5,40.5,5.6,70.1,6.8c108.8,4.5,143.7-22.7,251-28.2c50.2-2.6,89.6-1,167.4,9.4c58.1,7.7,98,19,158.8,23.1
		c197.8,13.3,236.1-61.2,502.1-99.9c108.9-15.9,214.3,14.5,214.3,14.5c84.6,20.5,109,23,173.3,24.8c73.8,2,134.1-10.6,172.9-21.3
		c0-31.1,0-65.6,0-96.7C1140,6.4,570,6.4,0,6.4C0,61.1,0,119.3,0,174z"/>
	<path class="st0" d="M0,167.6c16.2,2.5,40.5,5.6,70.1,6.8c108.8,4.5,143.7-22.7,251-28.2c50.2-2.6,89.6-1,167.4,9.4
		c58.1,7.7,98,19,158.8,23.1c197.8,13.3,236.1-61.2,502.1-99.9c108.9-15.9,214.3,14.5,214.3,14.5c84.6,20.5,109,23,173.3,24.8
		c73.8,2,134.1-10.6,172.9-21.3c0-31.1,0-65.6,0-96.7C1140,0,570,0,0,0C0,54.7,0,112.9,0,167.6z"/>
</g>
</svg>
