<?xml version="1.0" encoding="utf-8"?>
<!-- Generator: Adobe Illustrator 27.2.0, SVG Export Plug-In . SVG Version: 6.00 Build 0)  -->
<svg version="1.1" id="Layer_1" xmlns="http://www.w3.org/2000/svg" xmlns:xlink="http://www.w3.org/1999/xlink" x="0px" y="0px"
	 viewBox="0 0 547.2 356.1" style="enable-background:new 0 0 547.2 356.1;" xml:space="preserve">
<style type="text/css">
	.st0{fill:#0074FF;}
</style>
<g>
	<path class="st0" d="M540.5,161.8L385.4,6.7c-8.9-8.9-23.5-8.9-32.4,0s-8.9,23.5,0,32.4L491.9,178L353,317
		c-8.9,8.9-8.9,23.5,0,32.4s23.4,8.9,32.4,0l155.1-155.1c4.5-4.5,6.7-10.4,6.7-16.3C547.2,172.1,545,166.2,540.5,161.8z"/>
	<path class="st0" d="M194.2,6.7c-8.9-8.9-23.4-8.9-32.4,0L6.7,161.8C2.2,166.3,0,172.2,0,178.1c0,5.9,2.2,11.8,6.7,16.2
		l155.1,155.1c8.9,8.9,23.5,8.9,32.4,0c8.9-8.9,8.9-23.5,0-32.4L55.3,178.1l138.9-139C203.1,30.2,203.1,15.6,194.2,6.7z"/>
</g>
</svg>
