<?xml version="1.0" encoding="utf-8"?>
<!-- Generator: Adobe Illustrator 27.2.0, SVG Export Plug-In . SVG Version: 6.00 Build 0)  -->
<svg version="1.1" id="Layer_1" xmlns="http://www.w3.org/2000/svg" xmlns:xlink="http://www.w3.org/1999/xlink" x="0px" y="0px"
	 viewBox="0 0 1016.7 346.6" style="enable-background:new 0 0 1016.7 346.6;" xml:space="preserve">
<style type="text/css">
	.st0{fill:none;stroke:#FFFFFF;stroke-width:14;stroke-linecap:round;stroke-miterlimit:10;}
</style>
<path class="st0" d="M114.9,183.2c-3.7,1.3-5.4,6.8-4.3,8.6c2,3.2,15.1-1.7,16.1-2.2c34.5-15.1,47.7-47.3,23-47.3
	c-36.6,0-128.8,100-117.7,117.7C53.5,294.8,578-4.7,590.5,16c8.5,14-284.8,241.6-291,234.2c-6.7-7.9,149-118.9,171.1-163.7
	c10-20.2,0.1-32.8-10.2-36.9c-36.9-14.9-116.7,52.1-97.8,86.3c21.8,39.5,104.4,23.8,180.6-8.6c62.4-26.5,117.3-65.2,111.8-84.4
	c-1.8-6.2-30.3,0.5-49.5,14.5c-43.1,31.6-48.9,64.8-37.6,72.6c30.5,20.9,150.8-58.5,203.8-62.9c5-0.4,14.1-1.1,17.2,3.8
	c4.4,6.9-4.4,23.8-17.7,29c-9.7,3.8,5.8-7.2,2.9-19.3c-0.4-1.6-2.6-10.3-21.1-8.4c-13.2,1.3-35.3,9.7-53.2,29.8
	c-20.6,23-21.3,68.1-1.7,90.4C707,202.5,725.3,215,740,209c7.7-3.1,15-11.4,13.4-17.7c-2.3-9.4-23.9-12.8-37.6-11.8
	c-37.1,2.7-79,42.3-73.1,74.2c6.7,36.2,73.3,54.3,116.7,39.2c18.2-6.3,46.3-23.3,45.2-40.9c-0.3-5.3-3.4-11.6-8.1-12.9
	c-8.4-2.4-21.9,11.2-25.3,24.2c-5.6,21.3,14.1,49,34.4,60.2c58.1,32.1,180-37.6,180.1-100.5c0-22.5-15.4-49.8-38.2-54.8
	c-26-5.7-59.1,18.3-57.5,39.2c1,13.3,16.1,29.9,32.3,26.9c11.2-2.1,20.6-13.4,22-28"/>
</svg>
